<mxfile host="app.diagrams.net" agent="Mozilla/5.0 (Macintosh; Intel Mac OS X 10_15_7) AppleWebKit/537.36 (KHTML, like Gecko) Chrome/129.0.0.0 Safari/537.36" version="24.7.16">
  <diagram id="WI9T0HZ2pTsCkuznbFz-" name="Page-1">
    <mxGraphModel dx="1352" dy="1060" grid="1" gridSize="10" guides="1" tooltips="1" connect="1" arrows="1" fold="1" page="1" pageScale="1" pageWidth="1169" pageHeight="827" math="0" shadow="0">
      <root>
        <mxCell id="0" />
        <mxCell id="1" parent="0" />
        <mxCell id="pphXvmulf8JofoVOgVTP-13" value="" style="rounded=1;whiteSpace=wrap;html=1;fillColor=#ffe6cc;strokeColor=#d79b00;gradientColor=none;fillStyle=hatch;" parent="1" vertex="1">
          <mxGeometry x="300" y="320" width="680" height="160" as="geometry" />
        </mxCell>
        <mxCell id="pphXvmulf8JofoVOgVTP-10" value="Triggers" style="edgeStyle=orthogonalEdgeStyle;rounded=0;orthogonalLoop=1;jettySize=auto;html=1;" parent="1" source="pphXvmulf8JofoVOgVTP-4" edge="1">
          <mxGeometry x="0.0078" relative="1" as="geometry">
            <mxPoint x="880" y="386" as="targetPoint" />
            <mxPoint as="offset" />
          </mxGeometry>
        </mxCell>
        <mxCell id="pphXvmulf8JofoVOgVTP-4" value="Azure Service Bus" style="image;sketch=0;aspect=fixed;html=1;points=[];align=center;fontSize=12;image=img/lib/mscae/Service_Bus.svg;" parent="1" vertex="1">
          <mxGeometry x="701" y="361" width="50" height="50" as="geometry" />
        </mxCell>
        <mxCell id="pphXvmulf8JofoVOgVTP-6" value="Azure Key Vault" style="image;aspect=fixed;html=1;points=[];align=center;fontSize=12;image=img/lib/azure2/security/Key_Vaults.svg;" parent="1" vertex="1">
          <mxGeometry x="615" y="170" width="50" height="50" as="geometry" />
        </mxCell>
        <mxCell id="pphXvmulf8JofoVOgVTP-8" style="edgeStyle=orthogonalEdgeStyle;rounded=0;orthogonalLoop=1;jettySize=auto;html=1;entryX=0;entryY=0.5;entryDx=0;entryDy=0;" parent="1" source="pphXvmulf8JofoVOgVTP-7" edge="1">
          <mxGeometry relative="1" as="geometry">
            <mxPoint x="519" y="386" as="targetPoint" />
          </mxGeometry>
        </mxCell>
        <mxCell id="pphXvmulf8JofoVOgVTP-11" value="POSTs to" style="edgeLabel;html=1;align=center;verticalAlign=middle;resizable=0;points=[];" parent="pphXvmulf8JofoVOgVTP-8" vertex="1" connectable="0">
          <mxGeometry x="-0.4299" y="-1" relative="1" as="geometry">
            <mxPoint as="offset" />
          </mxGeometry>
        </mxCell>
        <mxCell id="pphXvmulf8JofoVOgVTP-7" value="Contentful&#xa;Webhook" style="shape=image;verticalLabelPosition=bottom;verticalAlign=top;imageAspect=0;aspect=fixed;image=data:image/avif,AAAAIGZ0eXBhdmlmAAAAAGF2aWZtaWYxbWlhZk1BMUIAAAGNbWV0YQAAAAAAAAAoaGRscgAAAAAAAAAAcGljdAAAAAAAAAAAAAAAAGxpYmF2aWYAAAAADnBpdG0AAAAAAAEAAAAsaWxvYwAAAABEAAACAAEAAAABAAANHAAAGGwAAgAAAAEAAAG1AAALZwAAAEJpaW5mAAAAAAACAAAAGmluZmUCAAAAAAEAAGF2MDFDb2xvcgAAAAAaaW5mZQIAAAAAAgAAYXYwMUFscGhhAAAAABppcmVmAAAAAAAAAA5hdXhsAAIAAQABAAAAw2lwcnAAAACdaXBjbwAAABRpc3BlAAAAAAAAAyEAAAMhAAAAEHBpeGkAAAAAAwgICAAAAAxhdjFDgQQMAAAAABNjb2xybmNseAABAA0ABoAAAAAOcGl4aQAAAAABCAAAAAxhdjFDgQQcAAAAADhhdXhDAAAAAHVybjptcGVnOm1wZWdCOmNpY3A6c3lzdGVtczphdXhpbGlhcnk6YWxwaGEAAAAAHmlwbWEAAAAAAAAAAgABBAECgwQAAgQBBYYHAAAj221kYXQSAAoHGSZyDIOFQDLZFhGwBxxQ9li8xnga/OTyLsKpIuMGYmONyA8xGNgxwRCASHCMOP5uzXC0O+G0ulqK4FxGSdozTg5p4jraqEn+yLkjCJ/SxSXJx0u/Jz2eqbt0DcnDbbpwz+2exOa7Yu4u8e6n7fHaEh1jF1stJvGR5KJq6B105qneKf1Ca7SlKnTAIc4qZab3PeppHl8PPIAfYJXZwq3BjcrLp06Mq0KnwBSwNxpNW7IQBFaweUuelEem8lVDgA1hIUObkLnhXzNPeyhta2WDSeGTlpjaX54wG2cz1tGVNDJZtDNkJ+WTfE+jxfWxEEN7YhvjpBUjq7JQzi6BP1laXjdRL+EGQLpJrvsZDdj/dEWvKl0atfXDBKxncjhOeUp83e3G9+YNnBCZZhFp4+GFbSjJU2YYE2dmiFnr6/Gjqv9uV/dF3xyk3pLgnoYTCTfnodXNG6XmW8p/PJdvHzhAkfblWEDmGFK7P8c+PpLYdymop0hu6iK52AMQbvGnXiF8rNVW8eVcIYdMx4+BrdGSHSy9CBwhWSsWxl1Sm/fp1LJGMCutffKVAoWTtLjnTfJ80XLk9YOWf3Te2scIHapgc0tGMWpKRP3yT1FEbUnrIZQzJ7fLSs3JAHPbVS6Y+KqwzKluxoMZ5rKUQSFYO43FiVt2VfPdc1FA1AuEtOv/AbTNuaaNX0oXSC3o8PDJnWTfGloX5JASHTZ6trjle4gjjSwFD+sdyWs/uyU0RpjiesAoxJwDbC7GJL5FdmcSMOJNFPw74uLUlzIajh/JbkZ/YWhW+MsICaXK9r3l3iIMwUhPy1lKX2GrSoO6HT0/sKiMOlMQDd/Oy/suzg8ud0ScVPEOMO6Jo68xH1oQ8ru60+Nvmo5sgC4cmJeezr7q9pb55cmxeQUEq/cOjVLhvQH2IiMBBwdcmIcHcyh2bA+orkUuT/HSdrko83OSM9C9ImodvBe9v9TVZBIbnxLIxiDTZ1Cy2KT9auhT33NG8Xu7dpY61wD3iD836MLYP6GYyn0pQLrZe1qVrIDYoJm6q++QUjLO3UnzZvDxdlJu4A2VN1M9FY9t0tdQaqZbJUzZkzZnWt7MC0PWmooDKwVyrMjjgTf3o0OMJPL2boUfciakNhlast5m2QToEbz9f16H3S0DbIp2dNU3PKTzEBYZM4WtqIiliqG4WuoQLtKcgmfbMO/sbgiQoXlY/4qGFZSZX5J6jOt25HFnsvJjVhq2oFnan4HjctIjHqR/xOS9hiT9o2KQ/pHJnI8dq+montTtKBdR40Kc57hVI6QDq4bDiakroRA1Rp+W8YReu2Lhi/YhUn6+1GGbjFx94tP9wiWSU7HH1IV+eT810/6jykb3eHk9D1UNyNkuUmSedOpJbMIBR7hMQ6l258rHNZ8LCH49nGhkvDnkxE86MPz29MabzXRrQ/xWutcYdYAQ2j/Q8bIPfba73BZ+qC0C2ikua1MT0SrLUPe1wJDgg4nNdB9bFECMTZKmHSpakM9tmuf37C6wba1vWtVVVVVVVVVVVQpSqr6Fl/25uX5g6HDP9qU4eripnxQgo9Ei1QXPAMnB5wLUU2LUfjQIwkzQli/LGJFPdSrQ0H/OzqLJZNzsKn3+ec0jYhCbrJ2lRoiWOx84qmljtCRp+8WNNXPxGNnVya0t5v3j01I9AqE4N4mvj+aiN05ZKAIzNvl4h1zCf64ygC26lTG/lCltXcpwjg/3Pku2D05AZOySC7EjBxSGK+1gX/ZGfJk5zwGGrBwdR1hMr0NZjdJBgBd5GA24ikiihzVTAVRO6XT2jv78W8uhYAKgKrC8CAS1OQkA2WVGSNFz9lmI0JjgpypXcb2dRF7KPwZ5ELKMj1PraCcskCDI5sNKoKE24tBci8/ii/GKtVfATQiNETXNwGXNFcnPme5xYBT7kfKtHIeyu6GgXrSYUl5+EVvf4MaFqPlDZWOtbP2Lb/FrK/aQnb7EzyEnFi1L3o8jITqEygifeo8K6IDd78IcUdCFJblzHB4vcf2GurlxxFqympmKqcyjeZZx1FOfjgBfVtpS459stLVqunjWo29lfTlXUwjhXsR3WZJNGRUMN3//////QU63ipidvC38lvTgmBGkHMrd1Zi31U0cvc3rL8OaN0o1fgO0d81x1fCnKYDO9cKdq6h8Qb22dVGSiphMbpauWUVspk47Hwdfn5QKvuPZTGePgrMswKn8QUDCia3L0b+t8vnsVfgGuDuH0SA2t2Zu1dYKwhs0Yp/VcAL/U4JD2ty6PIhzvjTmjbhpKt3MekMN2iLNnEnWk+m8AJa2+Wv6A4c8LrxyW1rNRxXq7DRRLKWpEWRTTSSOcj5VuVwMeloXuPzx+p4/VYcCqqqqqqqqqqqqqqqqqqsMlV/6FFIgKPL/rUmNtOMsE3WITnf3TV4jsSWBWK+ufUMD04CshS9wS78FTYEN6AgM41wFKO2GGYWpCOWrzVrmy2WrVRZKDgehlru0WDBQ+/sAkHdj/pdau5q3/qJ3h0b4aeGvMuROyuBwd7ifNon+wg3PX7G41YIpAFUwPcttmcutthONW2s6CfVGk0sUR92X7AVHdkBP6M/7RWs3EXh83oMwLeBfJzNXemhxpHuO+rUdXX2BpKDvoYxib1/BNOo5bavIoh5bKF/6srJYSIG9CqkOCcbDsTHVEVD0IpmTnLHHC3Nwbs3UqAsvlYfbTnsfP3bfL4ferwhHhYmU/4t3jFif4V2Rt1aizuIDjikkVfP7unFnHZoVZsdeRQe4g2qxbSLa+Rgbbq04FhZ5oJRseOmqlb7lYPJ8v/Pp7XgKOErcS8M1v1x3HyeBSwwMZW9OzgVg4JeBZOgoZDNkw2L/DhLrOKfDfBD0BOIo+nMWi2RegxHzTaPWYGJO6qPVpVqWWwgBP5dkXVfrNfNaMhMCWYiQltHhnO1EU7/ZvBHBbMwVzVuwjgSLCJONuMpqxbm0JmaFhq41S/erN04mx+aJG9FfJ/NslePX7+IPtRRTfEQ2HS5A1ebUWO0zgmybJ3cxAjCfy+DSMnNfPlikFKPjHTW9/STKg8Z7mTs+adz3CPcIjqwoGQUk/HtOSCqu0f2GaXQ4YMgFOci0MvK234/I2BF2molnGqxlnJTrELCeTiaKb1lc0DBLxeM8RYMGQ+YuaIknWbyGD8Lbux4MgMLgDPu1e7Y/iG2XCkMAPIfdwjrrqQbdlSSMGpr+l6BkGTeZCBPZKYYz8jzXBhEHWAGtsQ0BP2NOoxw4C5dxbKVisqtTJWt/NOFrXvaoRyOSi+bhldhJXAAAAAAAAEkpCU/8xoUtqiFCisjuz1pS1pSzEhRoYIJ7Fq5qiM9XhQnzYaJMHlrzZ3g2KBDL7uNqqG8CFFR8OjcH7Kjwg6MjFR5Eol+EFvgMLDcAhvnBfLRo4vgDXHELtyvd2/lF9nChPBcmW7EOa51a64IXJRDJALpqMP8jaqPosMO0fafPQ2NJiWjoCFpFv3FXSD0/5tGholdVX6yTYbYepZsDNYiY5RPNLJBAWjpp/Vyhvi4iCcC3Sj4mVL0VfKP7evTRigBs3SdflhJ0gIdgj0Ow5Ryh9KPlsoaUqzTbRSA35ftuHot8fz/91II3+4msHvPR7VDYKWsSAOVAcPp4KIoopeJkhyl6k3PjhAvYjiEY0b1peUJ+03k9dC9C9C9WY0AiJpGpEDkqBKcX8BJqg8jyTjbaMkhvU/p2oQJ1OCZWv1XqDt76xYPvCvNv8oBfglXRPm5DrZb+VCB16+WnNvX4Yrqe9CYM6Feyh4oYbPnVfAYts45d9+SgCHc6jK7FRwtyJPMxLXAVJCnszf3nfEt/e52RlUROxbQrwyLBIj2taH/zUzolnSgB8SQlCdjgvXR6XJUAAAAAAAAAJD2u7rjltUISAAoKGSZyDIOCAhoNCDLbMBGwAccccUD2WD98bWuZz+wJeeVQu5lgYTk9fhaq/32meHh7hUnKlGqfk2qWMXF8n6snQMg0Uk9o7z1tS0ZXO5SU5Pud75KMksP51SNURo23lcBKrsXonN/Ub2vBffy/RnGw4zb78dfbm9t6tIcaVx6vv3b//0E99r7LE2tXGj9ELZqCn2gO+0B32hSnRwrZOAigqo63ADfkWoDG/e3Q2+nNKYev8tDLqxgmxFcvzuw//f1j4qw9/zClfgmUqEljSRKua/4oZx2GH9f/bsvmmTvLHiQLQSOz5pzwjL3silPVzizXtKjW1MKREm4ZaHRINl7UvvodVWw3qYDM9rBnl1jOu6c2WI0Sik2DCvmhX5rCOLIc2OmTY+RnkmRuBt3t0XfK4A4rCGF6P4EWMpXRZFBiQrEw4NESvuEVoUFDEPTwf1q5td+yduLLunPP10TJpOtp9oGDD0YrA07sAEGTWWNZmyzTvCTKydtvF0JULPGD0Gwuv60/fR6iBIGXIUbHnyJNb+JJ2fVxTAoIF4Og4X/FXIef4qFPuqvUOs/////////////////////////////////3LZawBvLOXXIA807t1SLM7qWgFf1Z8xJt+m019VTP3Ao3CaDgqbulYU+BzIEV/g+CzZd1E7ZLS9bjlYMSZeCph95YQFwBbA1snH+00EfkvNRFer3OX6/VKW2g24tDiwToU+Y8LGBJXlhl1XpTQKLr9UAhM1kzYhBkTBKRzlAigfonbaL0e7XyTLRQT64oxSt+vz2/vK1OHtm89BC+KHzXbXCnr7TMiYjLE2R66NBr3yerAaPVGV/TmFVgGDY6TcOZHWwTGKCp1E4x6sQX8Jx40qdBXvKKGxg0LexhCyZBO3cd8tr/F+W/+7LPakYWetq0v7PDiAsX+tvnUGAwVwR20fQZZpD1eEd6M+SrjWswE4e/Afqyrd4fnF0HZY8CRcdFN5xbJCxZ1P4g+SCeWfMHruFXQyMgwrDggMjyB1EX4kidwboS338DLIGTF4MJ8qOvVYk6Ws+Sj617uPbecwIOSQIQ5sqCqbiIF3cnYn3yf/3GwagGZ+wKnAkwJV1mQqpAbrKbdZ7YaR9qU+hNh69M3asAMThGtF64x2vOv8kjaUSYZwNOBWnAqtOBVVpwKqq04FpwJY/VVVVVacCqqtAFy0eDDGRd+suQRv6y9Ac8Imq3DwvJyEiaRgNl35y/ZAqy5ZfK4PNeKmPbtmjC8iAZxS+OuuqHT78RZ0W1lXx76v4P1z+q3EnKswFP8v0+iCLp77h9++nvtEGcaJ5Cab71Ghe83ZnqAe94F7e5GVYclnc+k4+so4FG0upSakUqymSFY8p4+y/GEUvgRgI3svuL3A7LrEvBPpeDZ8jANbI9KpnufbIrBljz2yN4ykbUZSAY4Bh+rpBK01ewZI4FYx3yxsmPLk+2qQ3THOBaudkv7Q67xzulhN5VNQ0tNE/7ikscIjib/DjXdqPBSOImE8wiXQ5YlGwPpR1empIESEZtRMjiKXxdMWSbQS7uF2q3cjL7iOVD2pVmbCLeNecZoT8ALqlRXf688/wTQo6M+mErux/rAZZImQZv9vOO2Zyd+pDKPXh4ZaGnKfh2m9/jU3QuAbon7mqrSP920GilosZ4rB7HSaNI4r+H3wbVryT/queEFjAcAuQQe7rUGeGdmA/3+HMe/0NHxweiiqw5S6t8Kq88HASN0GhTqC0vJCLkrvz9KdjytTdpnOjLg9okDbKXk4VRRK7/P8Ru8lnnU7OGWd10nvJjVu+QQHu+60ImP1ggpRuMkWnzuYsPc8bizCjMgcSvq7EjvA68t+4Mp/UfPuNh6n6b6Sgymm6U7KetcPaJFO4gFArZyUPO3AtG9nM2Nz4OZI3R7dED5yTap12tRLzYgof89h0V5jKr++EgM28ZRTzPTLhn61o6aYuGr4Qj3WqlFnwBcRRGfu8kiLcKk7CpFbaIqFu5YAV5Iw+eEVSdMj16w0LNLu89/klIbYDr82plEhvOHnkFTgnxwRg+BhXB57F3vuNy2e0UKGZxAFUg5yTDUVU8TF0gb27vtTiKuteckomG8H1D30jdNr02IEXl51KCPO4gXRdHZFCxJ52utBT83S63WhAAxUkkDhzuq5CQwDRpQxWDNCmuRKvV4qe6EYS9ZlWflijLS/rQtf5c99jJ/YtuuvSIbibk/8pNMbYqqeeC7DWInughdvhS7bevHfG2BVHYV1meNqbohsYczMrvpRI+GyKPw/EVAaz4DacLA7YiieWgYkaeTrcJosY8Dp0++cBgQ25B4XLtW9Lgt8VGwh/whI9CECTklu3T/34DGD6REv3l7U1AElEIFr+isT2IxB0rbXULtPwmCSsHivI+OEEyss61a9TkRw+073zs82Bi3P68bz2L5REAelZ9YgJC1OETUd0yH1xM7yklPRx1z6goJK/XgQ1mZjszyfIgE33ODeoMbLj+p0yuES5c3cI55aRM+8+bFN8LhwoKl5Yw0PHuoTBZS8Vrt7qd1abqcwyS78Y229AcUwmce5eIugB2jFDyPgVzdh1ROfZs3Px6Meqmox8d6sd5BEKs/M64Nm17WPgWIyzxH1tfWLK6gdSg6lUHV4rVfFa+T5Pe+CD9gTj/xP2B4oRMcvCmnvMzQDVJ6jqLFKxfiz4r0cYk66nlFBKnPJOxQR1rxTv0IcaOUyV0B24rQvZJqKw13B1IDyBfoI0kM8x4ZhUAFNo/66779tWTAyfKVn6Yn4XdULPyYYbIRWftVfleWUeklRqTah5gr9HgY1pM3xYjcYy4mpaJqmN30rFyGU2p7wnXTquFgmKwV9mLmU6mTnSe990i5WavfPWw52nj3py67/aQRPYkc+gyVOjlJWChFpgSmovpj4+vP0fcbYsMx9R/zzQ4AwJn//////////////////+4jA+g0Otpl/iS3zsNI6z2Ks5lM0Ov7IjX8wQqHeQFV1jNXQVe2Vf4E33RwJ9sNzWXBnpXb7mqZ4MomGwpUSCT8ccum3h7sl6mmJjpSxiqc1r4Zhi3//////////////////6g9FMxxv2mXtD2WQsAGTG3fMFjZpIq51MYy/n1kezA6jJZdE+bz3JLT6ItxdOjeJdkcV3B/qBkfMg0sYSEQAhBHd1sOGeBEV+S42cnA061+y0IGjfFTmdEmDlJKF3epKha8UuYe9iwtgYHepmXzlX2Pl8k22xdbDULII/wjvhxgWnaDSgP3+kTy4y7lpaIXVyJ4WeCAV6WixKuEc2wGHPe+qVkl1nExldLVph8xzsGbg3NYaLz9pAYY7gydY3DxmSyspUMhqXlnnTZqchDKsphTRa1+uUe7BI3CHP1DpoEPvJDUQYGXzHE0FGKfsn01EOGILkMQ3zvDYXWt0zAiyPZbjkx141t0P60FuwWT91pKghXACMTVhVx93kVGy9UoVqXNb4CXM77QZ1LvEpX7bvKq/ZOZ2k8Cx5HFM3z+pjVnar9DL0uOC6ZWobLX9fcdOPvnnMAXzfGgKcjsbVWKU5kE4SMZGDcMTnAxo5xpl1PK9vP3PyI7SDnvXGgrst4YnArDsBKWsaJhxDIXFR4FtPZPPOr4zqqyaNpDr5ZECENraTWtxtB2xzpVnF/gIx1KnHaa9C5ZvfFudY4MclP5hShw9NYXyNo8c0Cxolcw9gd6KecDgo9np/5799+wdhCm7gCgDXnR9+limCC+ek2LXyjmxVC+xELHqJpxRR5zOclpgWz9BOfxm338FPVk65lZ3M8/q+IMGRW4EFBT/4YyKMf5JO1++ZV//////////6RfxaZ8V8/NijgHOf/MqeJW8Md9GoUEJnp2FP7q5T4Z/GRE/6o9SYvPlEjmdTS3OEDxdDX65jyJ4yAHiUCm4+yijSU9VVV98vzIz4mvFTCv8t1ht4A7yaka6KXUZzPXjqpYimpgnnohLRzc19HgF3IlkATcF4CjCuabN2S0tE7voIzj/Fl/7PArPSYwkwjCn5sSeNiLOf2terWKGjUIsTlSBTyigSd4+jSg2TKwDcsvuEWzWNI7bNBD0f5QLvkc3sH44QOvDidpg5aHXg5yFfIOSvtzNcYsm+6z/FLdW4hVs9QLWn0UWyX1iHwU/oCt8rKMIOxVs1qsbZ5HHbBamJfLigm2qmiiM5vhgHsMKdSOTTUrk8O4QlC0+FagyvQrvX1Xx7SL9nMIKLq1quAB7LnOQ8b41veKH/35zghmX1/0VfnaO0+nWpf+FdtFhMFqdzVhGSM7L7JV8MJnngYpLqSTopJ7xF1anFGHI7yverc/2JZuzSgqsquQWWv3Sao5Zzxo0s1dIzeg8iUuPupMcopH0zyi7Uwu/jBjOAbnrZAJzjjQb7eGmmzonnftWfNTnTtLlbrZOsGFV8j4R+95mkVEqxqP7qQDzGI7nDmmAsmI2qCHd5HGUvvay8k9vXMjrsYIr8pkE15NiJFysRIwh5flN76/I/p9sKSVH8goeIXowRT6YYObQFypl/9UkxHaUAPg6N+fp3J0TIz15umqfP7h+iKIV8ryIwjOPxuve9z2um6wvaPv3jy0bwdOnwC4o3qHz8+Gc2eal8YPWO8shOKLaTJlnPJN47mdNXvRvAE9MoTXqbYaKkydfyP9Os4cmHgF52mlpcqgQBaRXQbyhj2Sgd07BRcytPCHceowl91bdy2naV36Z6f2mg3eMyqYmtcNbkREYtsP7k5rYmTeZXnZiG4p4mCB26ttqBjLYpzl+RtW5kgUpWdBqRSqCLkTLQQ9HjPbrWLeifHPd+iCr5LvG7ApRVVELEHoLtxFEC4WnXNLf9I/Jcr4p5/CXZOYpJe26gCOFWAEDcH02/Te+bvEy681f///iSgl2uthWGWvx3RE2tx5HKyYo0D5vGLfCE9xo1FRiGVFViAMY4VN5WTIeZuZzcboXsTq7jgpptBI+ngP84Cqijm3ULxnabhWXAowwxCPi+t5xGmIlz0sZvGKsJDWZ58VuMZlror5F67ATtsEtdbOjsrPl/o44l3Jgs4fEMToU3ICReqLLm4SwFTZ8Z4Mnlim+MwjGebgvt0GOj3u5rIIPByjxg4WEfXgsAAAEjVAUKLVFt9M5FQvttDJO2bIvvdLD/etgxAAfBMgvL3SREKH0gd2ZI4d+9354S10L9EOyl+ehtk2oNz/mM2hHMEaiGA1unA4LKoK707bkYuxbOLA8vzHqrdiqPfat/E3gLBKE1RPCMe1L+O3pBGp9lSgZYjl2SwcwIYQkA/OCx/o9fdRaJq61L3cp8qTB7BcaImG4nU0WKfczF9/M/y+nCw0R1BoJEfGFCUKGLV2Z6VwPIkNeAm2DUeXXFg2lcYsFcjdiNiN30b3yRHOgmZJirvTNJZb7d9e0rnNXprNauhX53iuHJmDYZsYplSPwJ4gHSYB6SVIolZHgU7tj4aLf1nGwLJmFjjOhHfoE5VdQ5DGd4eB8u8LmoiOoe5ckShVSQ12b5WSafVKLgCPND0w64WNDi8iUwSbBu/7T7b85M+UN1bysQYmmWpV/KbUstlNHC26pRDY4wL0A6q0NU69m8UNVncfkEadneDeFjGEgdKnbR1QX+Dg5WUwV+ZkxCyTOg56JF0n1YblXNKlhfrnwAFGXR4qiuadjI4mrORXBEh6X/3ANOhcW5hZCEwNPFvUd4SReR++zKeiyh7sOSfuuRHbtLqsAlCiN0S4M24SyevjCQ/xrGQ3EaxeLGthBQBeYKMwX+q8IL4NAUbXH+UiwdGupvECZC82JvGHSejsGp4rqULpWNh/9UiQ4siySs2jP2T4fPZW16UeH/qneNVOjwDjUxR3pbpE/P7pgh9fKP/oQR8U1Ot8ZdbM6YtrqSJ+fEOI369najFZ+3+UQ0z0iE4ahQS1yVGvs2z2eEoH5+JRwRLdM3U2dyrRltk5KHvoA2+PFYQ8C8I+J0AZUOY1R8XHHhq8te8AJxP7MIs29I0KpWh/KrVWqrjFuAF31ghZr5w8uuYRNOzcEqBurC+uze0IaJXB4c6G7z3zqjmiTV7ykKEs982NFqtPvbus2HrnCCQKjz85gMWZUpwvVsD2bKBlfagg8DQwtUoFNpmPXnc6zaxMdeDwE1Mv4HdjrcQfascKpzNdON7XxWSHDEQAZqdpWvT3nRkWjpQ1OA9qN6rxkqkXdAwYpN99biKlETAjPZ8gfmkSFgVICG0f9Gva09SAAki1WbtJrcrARJ7MaSMaWlbf9M7kvazHJC/o8Xba17H5H4NAH/OLkTFtADKFHyslHl0xssExP5OC0JvGv/Lx45lQqoHO5t8GpJNt1osLBd5cpPcKKy8jhjknu1I7cx0GKQLacLImIKiFtgZZrU8/4zJz//JbGVRtvrLSY4E6ymNSdvjfeBWcttSS2YYoRlRTMI0sytvdeYce61eDXBxXbjv6GqTtW6ggwlT06TpzZqVeTfHCm6uKuRm/55xtcqZCg25RBpQmy4XOAWqUDfThkPVFUwGMsJy1Vm+3A4x4qVjNZqgtRBezUyOPmAjuBJBPp8FvUTapVT1iRePOgxMx8sfFvcRaHtr4d+daVByYyrusgXD85DhQIkroeXJ2TU26/Mh9A5DgYcGKtILprfCrQvhFVbGBVJtOcCB6h2SmpygUpVXY83FmDICoC4XZWcqQ/RGdzev1SeM/vDlw8hyDN1FstH4PjhFS+OqAU03uFaegbQzGxsltGHnYrZx83miqduETb1WaTasyL3sQLvYi9mWoyuqzd1BTuqzKcbdOiss1QwyRn92kArqYS1XJtAtroV0XEgW4BHfbW+/GgLhB6ODM9N3LckomQnB1DCwAAAAAAAAAAAAAAAAAAAAAAAAAAAAAAAAAAAAAAAAAKrqDqdyfJ4u87MOqwXaVCwxJMxs8Rj7gECU2mSPk2okNwhaYehj3NU0AOkZh0iX1MDncoldlsD5VWRyu2I2EN1bcvkt5XtUiG3sktLexGTRcmUvTHGEfNyPollFrQ1T9KYeW108kiMG/5PDxTClNLLayn6yn5CwzB1hAGkNRIqp1iFnmc6oZsGj5h9TfjeyTrR/ZzlE0awtuGnctFac/HyLIbl++X8RYUYMvQ+8BdQnpFdGIqM/4Nf09aEEzhtNAOI9aF78i0za1I6AbzhiC4NJEi6w2cSKUA2RK02tdXerRWFcG0AwaJ3bw8ZVthVe+Jayr4Ph261ZmF4z0PKcKfe2HcsAWGA91aUBVRYu/Ii8H8ZPo2S49AU76qGd5i0ENqk7AntPg/FITFTsHK0f8nPZUt7IYa7iYu9w2OPJMWD4BvmiHvL+zcUzXtb4qpm3PMUk6TYisuEMXDNsN65+qY+xZwVX3qHBvmRDB8gO5c7n0I4AMz6JNstCdbneUZyU3Qpwv9WqB41sMFGrbpj8MDajdbG4T8zVgVx1o52CG4f0V4XRE7VKgnLRJmRVvwWEeXy1a2n1t3P7JU5CgKuxG6zX990/9lmh1+a8CXQmWZHhHzwc0Dfd9YmnnTchzxz6ieg3d9nPtSgo2U7POx0lYibCK5ql2+76zS6uLIZPWP2kB2NY/SIb+AKJbav+Szoo5qldZzCL5W1c4DZOsPTV5guvviEpDp/jqxYqU7OjNTCvLc8borC9aAT0uDk8XI/UjBqCsla61f1RGcc9B4O2FcB0DjPGqYon8++iI8VUKLtvimM/25rKaN8J1vSiCUKPg9q/Ip4WHaynA6tLp7h9gUyXtRZ9UIisGI7Hgeeb0NpygX18o6dz+av1OI/RqtCGto4d5tdFtjQ92Am+4Vw8RnFLG9ilqk7/aN8PhL0sH8c/2Fgcu8Szsy7K7ZIW157S5umVRh0KlvpAXHIKmPVZwxCkO/jiVx0ypH9zKjl4Xu38NmkELN6xHeNSwB2bLgzdScHh/Bk0y0p4whluriPm6xILnpbCy3habhy2QZCMc7qBVv85f2FtB602VigYguIELBRrzbDE1n5pnk/ShUMx3OLcvHvfxoPDsKI/yovsYpncAS7z4zCrJO62gx9mi5wuAqm/z3c9Q7NJqpwH3W1YWRW399qFfKXwPhwnS3yNMOcwMq5B9bQZaEffCkkAHN/QhRiUOgSspyTezOwOZyqPI141eBSIU3i2bfdMzY4t7OhFG1tov/Apw2oPrRZDcJPeXOFUnyCwA5qoe4EA/c7SwXcDxQ/uxL8D4XdmnEHi1PFldeQQmR3C7ysUm7tPVgLp+8Z/1xQSfB7ezlDg73fTcQTe8ah/KEi3a/Jd92aqbZ15mcKGMFWbyWV1xWziczm8KbvV4uLceCAuqmlhlx7kgmx1UgVZnRvWGh2k0lpxpCS574A=" parent="1" vertex="1">
          <mxGeometry x="340" y="361" width="50" height="50" as="geometry" />
        </mxCell>
        <mxCell id="pphXvmulf8JofoVOgVTP-9" value="Writes to Service&amp;nbsp;&lt;br&gt;Bus Queue" style="edgeStyle=orthogonalEdgeStyle;rounded=0;orthogonalLoop=1;jettySize=auto;html=1;entryX=0;entryY=0.5;entryDx=0;entryDy=0;entryPerimeter=0;" parent="1" target="pphXvmulf8JofoVOgVTP-4" edge="1">
          <mxGeometry relative="1" as="geometry">
            <mxPoint x="572.78" y="386" as="sourcePoint" />
          </mxGeometry>
        </mxCell>
        <mxCell id="pphXvmulf8JofoVOgVTP-14" value="Retrieves secrets from" style="edgeStyle=orthogonalEdgeStyle;rounded=0;orthogonalLoop=1;jettySize=auto;html=1;entryX=0.5;entryY=1.006;entryDx=0;entryDy=0;entryPerimeter=0;" parent="1" source="pphXvmulf8JofoVOgVTP-13" target="pphXvmulf8JofoVOgVTP-6" edge="1">
          <mxGeometry relative="1" as="geometry" />
        </mxCell>
        <mxCell id="pphXvmulf8JofoVOgVTP-16" value="Content designer&lt;br&gt;creates or edits an entry" style="edgeStyle=orthogonalEdgeStyle;rounded=0;orthogonalLoop=1;jettySize=auto;html=1;" parent="1" source="pphXvmulf8JofoVOgVTP-15" target="pphXvmulf8JofoVOgVTP-7" edge="1">
          <mxGeometry relative="1" as="geometry">
            <mxPoint as="offset" />
          </mxGeometry>
        </mxCell>
        <mxCell id="pphXvmulf8JofoVOgVTP-15" value="Contentful" style="shape=image;verticalLabelPosition=bottom;verticalAlign=top;imageAspect=0;aspect=fixed;image=data:image/avif,AAAAIGZ0eXBhdmlmAAAAAGF2aWZtaWYxbWlhZk1BMUIAAAGNbWV0YQAAAAAAAAAoaGRscgAAAAAAAAAAcGljdAAAAAAAAAAAAAAAAGxpYmF2aWYAAAAADnBpdG0AAAAAAAEAAAAsaWxvYwAAAABEAAACAAEAAAABAAANHAAAGGwAAgAAAAEAAAG1AAALZwAAAEJpaW5mAAAAAAACAAAAGmluZmUCAAAAAAEAAGF2MDFDb2xvcgAAAAAaaW5mZQIAAAAAAgAAYXYwMUFscGhhAAAAABppcmVmAAAAAAAAAA5hdXhsAAIAAQABAAAAw2lwcnAAAACdaXBjbwAAABRpc3BlAAAAAAAAAyEAAAMhAAAAEHBpeGkAAAAAAwgICAAAAAxhdjFDgQQMAAAAABNjb2xybmNseAABAA0ABoAAAAAOcGl4aQAAAAABCAAAAAxhdjFDgQQcAAAAADhhdXhDAAAAAHVybjptcGVnOm1wZWdCOmNpY3A6c3lzdGVtczphdXhpbGlhcnk6YWxwaGEAAAAAHmlwbWEAAAAAAAAAAgABBAECgwQAAgQBBYYHAAAj221kYXQSAAoHGSZyDIOFQDLZFhGwBxxQ9li8xnga/OTyLsKpIuMGYmONyA8xGNgxwRCASHCMOP5uzXC0O+G0ulqK4FxGSdozTg5p4jraqEn+yLkjCJ/SxSXJx0u/Jz2eqbt0DcnDbbpwz+2exOa7Yu4u8e6n7fHaEh1jF1stJvGR5KJq6B105qneKf1Ca7SlKnTAIc4qZab3PeppHl8PPIAfYJXZwq3BjcrLp06Mq0KnwBSwNxpNW7IQBFaweUuelEem8lVDgA1hIUObkLnhXzNPeyhta2WDSeGTlpjaX54wG2cz1tGVNDJZtDNkJ+WTfE+jxfWxEEN7YhvjpBUjq7JQzi6BP1laXjdRL+EGQLpJrvsZDdj/dEWvKl0atfXDBKxncjhOeUp83e3G9+YNnBCZZhFp4+GFbSjJU2YYE2dmiFnr6/Gjqv9uV/dF3xyk3pLgnoYTCTfnodXNG6XmW8p/PJdvHzhAkfblWEDmGFK7P8c+PpLYdymop0hu6iK52AMQbvGnXiF8rNVW8eVcIYdMx4+BrdGSHSy9CBwhWSsWxl1Sm/fp1LJGMCutffKVAoWTtLjnTfJ80XLk9YOWf3Te2scIHapgc0tGMWpKRP3yT1FEbUnrIZQzJ7fLSs3JAHPbVS6Y+KqwzKluxoMZ5rKUQSFYO43FiVt2VfPdc1FA1AuEtOv/AbTNuaaNX0oXSC3o8PDJnWTfGloX5JASHTZ6trjle4gjjSwFD+sdyWs/uyU0RpjiesAoxJwDbC7GJL5FdmcSMOJNFPw74uLUlzIajh/JbkZ/YWhW+MsICaXK9r3l3iIMwUhPy1lKX2GrSoO6HT0/sKiMOlMQDd/Oy/suzg8ud0ScVPEOMO6Jo68xH1oQ8ru60+Nvmo5sgC4cmJeezr7q9pb55cmxeQUEq/cOjVLhvQH2IiMBBwdcmIcHcyh2bA+orkUuT/HSdrko83OSM9C9ImodvBe9v9TVZBIbnxLIxiDTZ1Cy2KT9auhT33NG8Xu7dpY61wD3iD836MLYP6GYyn0pQLrZe1qVrIDYoJm6q++QUjLO3UnzZvDxdlJu4A2VN1M9FY9t0tdQaqZbJUzZkzZnWt7MC0PWmooDKwVyrMjjgTf3o0OMJPL2boUfciakNhlast5m2QToEbz9f16H3S0DbIp2dNU3PKTzEBYZM4WtqIiliqG4WuoQLtKcgmfbMO/sbgiQoXlY/4qGFZSZX5J6jOt25HFnsvJjVhq2oFnan4HjctIjHqR/xOS9hiT9o2KQ/pHJnI8dq+montTtKBdR40Kc57hVI6QDq4bDiakroRA1Rp+W8YReu2Lhi/YhUn6+1GGbjFx94tP9wiWSU7HH1IV+eT810/6jykb3eHk9D1UNyNkuUmSedOpJbMIBR7hMQ6l258rHNZ8LCH49nGhkvDnkxE86MPz29MabzXRrQ/xWutcYdYAQ2j/Q8bIPfba73BZ+qC0C2ikua1MT0SrLUPe1wJDgg4nNdB9bFECMTZKmHSpakM9tmuf37C6wba1vWtVVVVVVVVVVVQpSqr6Fl/25uX5g6HDP9qU4eripnxQgo9Ei1QXPAMnB5wLUU2LUfjQIwkzQli/LGJFPdSrQ0H/OzqLJZNzsKn3+ec0jYhCbrJ2lRoiWOx84qmljtCRp+8WNNXPxGNnVya0t5v3j01I9AqE4N4mvj+aiN05ZKAIzNvl4h1zCf64ygC26lTG/lCltXcpwjg/3Pku2D05AZOySC7EjBxSGK+1gX/ZGfJk5zwGGrBwdR1hMr0NZjdJBgBd5GA24ikiihzVTAVRO6XT2jv78W8uhYAKgKrC8CAS1OQkA2WVGSNFz9lmI0JjgpypXcb2dRF7KPwZ5ELKMj1PraCcskCDI5sNKoKE24tBci8/ii/GKtVfATQiNETXNwGXNFcnPme5xYBT7kfKtHIeyu6GgXrSYUl5+EVvf4MaFqPlDZWOtbP2Lb/FrK/aQnb7EzyEnFi1L3o8jITqEygifeo8K6IDd78IcUdCFJblzHB4vcf2GurlxxFqympmKqcyjeZZx1FOfjgBfVtpS459stLVqunjWo29lfTlXUwjhXsR3WZJNGRUMN3//////QU63ipidvC38lvTgmBGkHMrd1Zi31U0cvc3rL8OaN0o1fgO0d81x1fCnKYDO9cKdq6h8Qb22dVGSiphMbpauWUVspk47Hwdfn5QKvuPZTGePgrMswKn8QUDCia3L0b+t8vnsVfgGuDuH0SA2t2Zu1dYKwhs0Yp/VcAL/U4JD2ty6PIhzvjTmjbhpKt3MekMN2iLNnEnWk+m8AJa2+Wv6A4c8LrxyW1rNRxXq7DRRLKWpEWRTTSSOcj5VuVwMeloXuPzx+p4/VYcCqqqqqqqqqqqqqqqqqqsMlV/6FFIgKPL/rUmNtOMsE3WITnf3TV4jsSWBWK+ufUMD04CshS9wS78FTYEN6AgM41wFKO2GGYWpCOWrzVrmy2WrVRZKDgehlru0WDBQ+/sAkHdj/pdau5q3/qJ3h0b4aeGvMuROyuBwd7ifNon+wg3PX7G41YIpAFUwPcttmcutthONW2s6CfVGk0sUR92X7AVHdkBP6M/7RWs3EXh83oMwLeBfJzNXemhxpHuO+rUdXX2BpKDvoYxib1/BNOo5bavIoh5bKF/6srJYSIG9CqkOCcbDsTHVEVD0IpmTnLHHC3Nwbs3UqAsvlYfbTnsfP3bfL4ferwhHhYmU/4t3jFif4V2Rt1aizuIDjikkVfP7unFnHZoVZsdeRQe4g2qxbSLa+Rgbbq04FhZ5oJRseOmqlb7lYPJ8v/Pp7XgKOErcS8M1v1x3HyeBSwwMZW9OzgVg4JeBZOgoZDNkw2L/DhLrOKfDfBD0BOIo+nMWi2RegxHzTaPWYGJO6qPVpVqWWwgBP5dkXVfrNfNaMhMCWYiQltHhnO1EU7/ZvBHBbMwVzVuwjgSLCJONuMpqxbm0JmaFhq41S/erN04mx+aJG9FfJ/NslePX7+IPtRRTfEQ2HS5A1ebUWO0zgmybJ3cxAjCfy+DSMnNfPlikFKPjHTW9/STKg8Z7mTs+adz3CPcIjqwoGQUk/HtOSCqu0f2GaXQ4YMgFOci0MvK234/I2BF2molnGqxlnJTrELCeTiaKb1lc0DBLxeM8RYMGQ+YuaIknWbyGD8Lbux4MgMLgDPu1e7Y/iG2XCkMAPIfdwjrrqQbdlSSMGpr+l6BkGTeZCBPZKYYz8jzXBhEHWAGtsQ0BP2NOoxw4C5dxbKVisqtTJWt/NOFrXvaoRyOSi+bhldhJXAAAAAAAAEkpCU/8xoUtqiFCisjuz1pS1pSzEhRoYIJ7Fq5qiM9XhQnzYaJMHlrzZ3g2KBDL7uNqqG8CFFR8OjcH7Kjwg6MjFR5Eol+EFvgMLDcAhvnBfLRo4vgDXHELtyvd2/lF9nChPBcmW7EOa51a64IXJRDJALpqMP8jaqPosMO0fafPQ2NJiWjoCFpFv3FXSD0/5tGholdVX6yTYbYepZsDNYiY5RPNLJBAWjpp/Vyhvi4iCcC3Sj4mVL0VfKP7evTRigBs3SdflhJ0gIdgj0Ow5Ryh9KPlsoaUqzTbRSA35ftuHot8fz/91II3+4msHvPR7VDYKWsSAOVAcPp4KIoopeJkhyl6k3PjhAvYjiEY0b1peUJ+03k9dC9C9C9WY0AiJpGpEDkqBKcX8BJqg8jyTjbaMkhvU/p2oQJ1OCZWv1XqDt76xYPvCvNv8oBfglXRPm5DrZb+VCB16+WnNvX4Yrqe9CYM6Feyh4oYbPnVfAYts45d9+SgCHc6jK7FRwtyJPMxLXAVJCnszf3nfEt/e52RlUROxbQrwyLBIj2taH/zUzolnSgB8SQlCdjgvXR6XJUAAAAAAAAAJD2u7rjltUISAAoKGSZyDIOCAhoNCDLbMBGwAccccUD2WD98bWuZz+wJeeVQu5lgYTk9fhaq/32meHh7hUnKlGqfk2qWMXF8n6snQMg0Uk9o7z1tS0ZXO5SU5Pud75KMksP51SNURo23lcBKrsXonN/Ub2vBffy/RnGw4zb78dfbm9t6tIcaVx6vv3b//0E99r7LE2tXGj9ELZqCn2gO+0B32hSnRwrZOAigqo63ADfkWoDG/e3Q2+nNKYev8tDLqxgmxFcvzuw//f1j4qw9/zClfgmUqEljSRKua/4oZx2GH9f/bsvmmTvLHiQLQSOz5pzwjL3silPVzizXtKjW1MKREm4ZaHRINl7UvvodVWw3qYDM9rBnl1jOu6c2WI0Sik2DCvmhX5rCOLIc2OmTY+RnkmRuBt3t0XfK4A4rCGF6P4EWMpXRZFBiQrEw4NESvuEVoUFDEPTwf1q5td+yduLLunPP10TJpOtp9oGDD0YrA07sAEGTWWNZmyzTvCTKydtvF0JULPGD0Gwuv60/fR6iBIGXIUbHnyJNb+JJ2fVxTAoIF4Og4X/FXIef4qFPuqvUOs/////////////////////////////////3LZawBvLOXXIA807t1SLM7qWgFf1Z8xJt+m019VTP3Ao3CaDgqbulYU+BzIEV/g+CzZd1E7ZLS9bjlYMSZeCph95YQFwBbA1snH+00EfkvNRFer3OX6/VKW2g24tDiwToU+Y8LGBJXlhl1XpTQKLr9UAhM1kzYhBkTBKRzlAigfonbaL0e7XyTLRQT64oxSt+vz2/vK1OHtm89BC+KHzXbXCnr7TMiYjLE2R66NBr3yerAaPVGV/TmFVgGDY6TcOZHWwTGKCp1E4x6sQX8Jx40qdBXvKKGxg0LexhCyZBO3cd8tr/F+W/+7LPakYWetq0v7PDiAsX+tvnUGAwVwR20fQZZpD1eEd6M+SrjWswE4e/Afqyrd4fnF0HZY8CRcdFN5xbJCxZ1P4g+SCeWfMHruFXQyMgwrDggMjyB1EX4kidwboS338DLIGTF4MJ8qOvVYk6Ws+Sj617uPbecwIOSQIQ5sqCqbiIF3cnYn3yf/3GwagGZ+wKnAkwJV1mQqpAbrKbdZ7YaR9qU+hNh69M3asAMThGtF64x2vOv8kjaUSYZwNOBWnAqtOBVVpwKqq04FpwJY/VVVVVacCqqtAFy0eDDGRd+suQRv6y9Ac8Imq3DwvJyEiaRgNl35y/ZAqy5ZfK4PNeKmPbtmjC8iAZxS+OuuqHT78RZ0W1lXx76v4P1z+q3EnKswFP8v0+iCLp77h9++nvtEGcaJ5Cab71Ghe83ZnqAe94F7e5GVYclnc+k4+so4FG0upSakUqymSFY8p4+y/GEUvgRgI3svuL3A7LrEvBPpeDZ8jANbI9KpnufbIrBljz2yN4ykbUZSAY4Bh+rpBK01ewZI4FYx3yxsmPLk+2qQ3THOBaudkv7Q67xzulhN5VNQ0tNE/7ikscIjib/DjXdqPBSOImE8wiXQ5YlGwPpR1empIESEZtRMjiKXxdMWSbQS7uF2q3cjL7iOVD2pVmbCLeNecZoT8ALqlRXf688/wTQo6M+mErux/rAZZImQZv9vOO2Zyd+pDKPXh4ZaGnKfh2m9/jU3QuAbon7mqrSP920GilosZ4rB7HSaNI4r+H3wbVryT/queEFjAcAuQQe7rUGeGdmA/3+HMe/0NHxweiiqw5S6t8Kq88HASN0GhTqC0vJCLkrvz9KdjytTdpnOjLg9okDbKXk4VRRK7/P8Ru8lnnU7OGWd10nvJjVu+QQHu+60ImP1ggpRuMkWnzuYsPc8bizCjMgcSvq7EjvA68t+4Mp/UfPuNh6n6b6Sgymm6U7KetcPaJFO4gFArZyUPO3AtG9nM2Nz4OZI3R7dED5yTap12tRLzYgof89h0V5jKr++EgM28ZRTzPTLhn61o6aYuGr4Qj3WqlFnwBcRRGfu8kiLcKk7CpFbaIqFu5YAV5Iw+eEVSdMj16w0LNLu89/klIbYDr82plEhvOHnkFTgnxwRg+BhXB57F3vuNy2e0UKGZxAFUg5yTDUVU8TF0gb27vtTiKuteckomG8H1D30jdNr02IEXl51KCPO4gXRdHZFCxJ52utBT83S63WhAAxUkkDhzuq5CQwDRpQxWDNCmuRKvV4qe6EYS9ZlWflijLS/rQtf5c99jJ/YtuuvSIbibk/8pNMbYqqeeC7DWInughdvhS7bevHfG2BVHYV1meNqbohsYczMrvpRI+GyKPw/EVAaz4DacLA7YiieWgYkaeTrcJosY8Dp0++cBgQ25B4XLtW9Lgt8VGwh/whI9CECTklu3T/34DGD6REv3l7U1AElEIFr+isT2IxB0rbXULtPwmCSsHivI+OEEyss61a9TkRw+073zs82Bi3P68bz2L5REAelZ9YgJC1OETUd0yH1xM7yklPRx1z6goJK/XgQ1mZjszyfIgE33ODeoMbLj+p0yuES5c3cI55aRM+8+bFN8LhwoKl5Yw0PHuoTBZS8Vrt7qd1abqcwyS78Y229AcUwmce5eIugB2jFDyPgVzdh1ROfZs3Px6Meqmox8d6sd5BEKs/M64Nm17WPgWIyzxH1tfWLK6gdSg6lUHV4rVfFa+T5Pe+CD9gTj/xP2B4oRMcvCmnvMzQDVJ6jqLFKxfiz4r0cYk66nlFBKnPJOxQR1rxTv0IcaOUyV0B24rQvZJqKw13B1IDyBfoI0kM8x4ZhUAFNo/66779tWTAyfKVn6Yn4XdULPyYYbIRWftVfleWUeklRqTah5gr9HgY1pM3xYjcYy4mpaJqmN30rFyGU2p7wnXTquFgmKwV9mLmU6mTnSe990i5WavfPWw52nj3py67/aQRPYkc+gyVOjlJWChFpgSmovpj4+vP0fcbYsMx9R/zzQ4AwJn//////////////////+4jA+g0Otpl/iS3zsNI6z2Ks5lM0Ov7IjX8wQqHeQFV1jNXQVe2Vf4E33RwJ9sNzWXBnpXb7mqZ4MomGwpUSCT8ccum3h7sl6mmJjpSxiqc1r4Zhi3//////////////////6g9FMxxv2mXtD2WQsAGTG3fMFjZpIq51MYy/n1kezA6jJZdE+bz3JLT6ItxdOjeJdkcV3B/qBkfMg0sYSEQAhBHd1sOGeBEV+S42cnA061+y0IGjfFTmdEmDlJKF3epKha8UuYe9iwtgYHepmXzlX2Pl8k22xdbDULII/wjvhxgWnaDSgP3+kTy4y7lpaIXVyJ4WeCAV6WixKuEc2wGHPe+qVkl1nExldLVph8xzsGbg3NYaLz9pAYY7gydY3DxmSyspUMhqXlnnTZqchDKsphTRa1+uUe7BI3CHP1DpoEPvJDUQYGXzHE0FGKfsn01EOGILkMQ3zvDYXWt0zAiyPZbjkx141t0P60FuwWT91pKghXACMTVhVx93kVGy9UoVqXNb4CXM77QZ1LvEpX7bvKq/ZOZ2k8Cx5HFM3z+pjVnar9DL0uOC6ZWobLX9fcdOPvnnMAXzfGgKcjsbVWKU5kE4SMZGDcMTnAxo5xpl1PK9vP3PyI7SDnvXGgrst4YnArDsBKWsaJhxDIXFR4FtPZPPOr4zqqyaNpDr5ZECENraTWtxtB2xzpVnF/gIx1KnHaa9C5ZvfFudY4MclP5hShw9NYXyNo8c0Cxolcw9gd6KecDgo9np/5799+wdhCm7gCgDXnR9+limCC+ek2LXyjmxVC+xELHqJpxRR5zOclpgWz9BOfxm338FPVk65lZ3M8/q+IMGRW4EFBT/4YyKMf5JO1++ZV//////////6RfxaZ8V8/NijgHOf/MqeJW8Md9GoUEJnp2FP7q5T4Z/GRE/6o9SYvPlEjmdTS3OEDxdDX65jyJ4yAHiUCm4+yijSU9VVV98vzIz4mvFTCv8t1ht4A7yaka6KXUZzPXjqpYimpgnnohLRzc19HgF3IlkATcF4CjCuabN2S0tE7voIzj/Fl/7PArPSYwkwjCn5sSeNiLOf2terWKGjUIsTlSBTyigSd4+jSg2TKwDcsvuEWzWNI7bNBD0f5QLvkc3sH44QOvDidpg5aHXg5yFfIOSvtzNcYsm+6z/FLdW4hVs9QLWn0UWyX1iHwU/oCt8rKMIOxVs1qsbZ5HHbBamJfLigm2qmiiM5vhgHsMKdSOTTUrk8O4QlC0+FagyvQrvX1Xx7SL9nMIKLq1quAB7LnOQ8b41veKH/35zghmX1/0VfnaO0+nWpf+FdtFhMFqdzVhGSM7L7JV8MJnngYpLqSTopJ7xF1anFGHI7yverc/2JZuzSgqsquQWWv3Sao5Zzxo0s1dIzeg8iUuPupMcopH0zyi7Uwu/jBjOAbnrZAJzjjQb7eGmmzonnftWfNTnTtLlbrZOsGFV8j4R+95mkVEqxqP7qQDzGI7nDmmAsmI2qCHd5HGUvvay8k9vXMjrsYIr8pkE15NiJFysRIwh5flN76/I/p9sKSVH8goeIXowRT6YYObQFypl/9UkxHaUAPg6N+fp3J0TIz15umqfP7h+iKIV8ryIwjOPxuve9z2um6wvaPv3jy0bwdOnwC4o3qHz8+Gc2eal8YPWO8shOKLaTJlnPJN47mdNXvRvAE9MoTXqbYaKkydfyP9Os4cmHgF52mlpcqgQBaRXQbyhj2Sgd07BRcytPCHceowl91bdy2naV36Z6f2mg3eMyqYmtcNbkREYtsP7k5rYmTeZXnZiG4p4mCB26ttqBjLYpzl+RtW5kgUpWdBqRSqCLkTLQQ9HjPbrWLeifHPd+iCr5LvG7ApRVVELEHoLtxFEC4WnXNLf9I/Jcr4p5/CXZOYpJe26gCOFWAEDcH02/Te+bvEy681f///iSgl2uthWGWvx3RE2tx5HKyYo0D5vGLfCE9xo1FRiGVFViAMY4VN5WTIeZuZzcboXsTq7jgpptBI+ngP84Cqijm3ULxnabhWXAowwxCPi+t5xGmIlz0sZvGKsJDWZ58VuMZlror5F67ATtsEtdbOjsrPl/o44l3Jgs4fEMToU3ICReqLLm4SwFTZ8Z4Mnlim+MwjGebgvt0GOj3u5rIIPByjxg4WEfXgsAAAEjVAUKLVFt9M5FQvttDJO2bIvvdLD/etgxAAfBMgvL3SREKH0gd2ZI4d+9354S10L9EOyl+ehtk2oNz/mM2hHMEaiGA1unA4LKoK707bkYuxbOLA8vzHqrdiqPfat/E3gLBKE1RPCMe1L+O3pBGp9lSgZYjl2SwcwIYQkA/OCx/o9fdRaJq61L3cp8qTB7BcaImG4nU0WKfczF9/M/y+nCw0R1BoJEfGFCUKGLV2Z6VwPIkNeAm2DUeXXFg2lcYsFcjdiNiN30b3yRHOgmZJirvTNJZb7d9e0rnNXprNauhX53iuHJmDYZsYplSPwJ4gHSYB6SVIolZHgU7tj4aLf1nGwLJmFjjOhHfoE5VdQ5DGd4eB8u8LmoiOoe5ckShVSQ12b5WSafVKLgCPND0w64WNDi8iUwSbBu/7T7b85M+UN1bysQYmmWpV/KbUstlNHC26pRDY4wL0A6q0NU69m8UNVncfkEadneDeFjGEgdKnbR1QX+Dg5WUwV+ZkxCyTOg56JF0n1YblXNKlhfrnwAFGXR4qiuadjI4mrORXBEh6X/3ANOhcW5hZCEwNPFvUd4SReR++zKeiyh7sOSfuuRHbtLqsAlCiN0S4M24SyevjCQ/xrGQ3EaxeLGthBQBeYKMwX+q8IL4NAUbXH+UiwdGupvECZC82JvGHSejsGp4rqULpWNh/9UiQ4siySs2jP2T4fPZW16UeH/qneNVOjwDjUxR3pbpE/P7pgh9fKP/oQR8U1Ot8ZdbM6YtrqSJ+fEOI369najFZ+3+UQ0z0iE4ahQS1yVGvs2z2eEoH5+JRwRLdM3U2dyrRltk5KHvoA2+PFYQ8C8I+J0AZUOY1R8XHHhq8te8AJxP7MIs29I0KpWh/KrVWqrjFuAF31ghZr5w8uuYRNOzcEqBurC+uze0IaJXB4c6G7z3zqjmiTV7ykKEs982NFqtPvbus2HrnCCQKjz85gMWZUpwvVsD2bKBlfagg8DQwtUoFNpmPXnc6zaxMdeDwE1Mv4HdjrcQfascKpzNdON7XxWSHDEQAZqdpWvT3nRkWjpQ1OA9qN6rxkqkXdAwYpN99biKlETAjPZ8gfmkSFgVICG0f9Gva09SAAki1WbtJrcrARJ7MaSMaWlbf9M7kvazHJC/o8Xba17H5H4NAH/OLkTFtADKFHyslHl0xssExP5OC0JvGv/Lx45lQqoHO5t8GpJNt1osLBd5cpPcKKy8jhjknu1I7cx0GKQLacLImIKiFtgZZrU8/4zJz//JbGVRtvrLSY4E6ymNSdvjfeBWcttSS2YYoRlRTMI0sytvdeYce61eDXBxXbjv6GqTtW6ggwlT06TpzZqVeTfHCm6uKuRm/55xtcqZCg25RBpQmy4XOAWqUDfThkPVFUwGMsJy1Vm+3A4x4qVjNZqgtRBezUyOPmAjuBJBPp8FvUTapVT1iRePOgxMx8sfFvcRaHtr4d+daVByYyrusgXD85DhQIkroeXJ2TU26/Mh9A5DgYcGKtILprfCrQvhFVbGBVJtOcCB6h2SmpygUpVXY83FmDICoC4XZWcqQ/RGdzev1SeM/vDlw8hyDN1FstH4PjhFS+OqAU03uFaegbQzGxsltGHnYrZx83miqduETb1WaTasyL3sQLvYi9mWoyuqzd1BTuqzKcbdOiss1QwyRn92kArqYS1XJtAtroV0XEgW4BHfbW+/GgLhB6ODM9N3LckomQnB1DCwAAAAAAAAAAAAAAAAAAAAAAAAAAAAAAAAAAAAAAAAAKrqDqdyfJ4u87MOqwXaVCwxJMxs8Rj7gECU2mSPk2okNwhaYehj3NU0AOkZh0iX1MDncoldlsD5VWRyu2I2EN1bcvkt5XtUiG3sktLexGTRcmUvTHGEfNyPollFrQ1T9KYeW108kiMG/5PDxTClNLLayn6yn5CwzB1hAGkNRIqp1iFnmc6oZsGj5h9TfjeyTrR/ZzlE0awtuGnctFac/HyLIbl++X8RYUYMvQ+8BdQnpFdGIqM/4Nf09aEEzhtNAOI9aF78i0za1I6AbzhiC4NJEi6w2cSKUA2RK02tdXerRWFcG0AwaJ3bw8ZVthVe+Jayr4Ph261ZmF4z0PKcKfe2HcsAWGA91aUBVRYu/Ii8H8ZPo2S49AU76qGd5i0ENqk7AntPg/FITFTsHK0f8nPZUt7IYa7iYu9w2OPJMWD4BvmiHvL+zcUzXtb4qpm3PMUk6TYisuEMXDNsN65+qY+xZwVX3qHBvmRDB8gO5c7n0I4AMz6JNstCdbneUZyU3Qpwv9WqB41sMFGrbpj8MDajdbG4T8zVgVx1o52CG4f0V4XRE7VKgnLRJmRVvwWEeXy1a2n1t3P7JU5CgKuxG6zX990/9lmh1+a8CXQmWZHhHzwc0Dfd9YmnnTchzxz6ieg3d9nPtSgo2U7POx0lYibCK5ql2+76zS6uLIZPWP2kB2NY/SIb+AKJbav+Szoo5qldZzCL5W1c4DZOsPTV5guvviEpDp/jqxYqU7OjNTCvLc8borC9aAT0uDk8XI/UjBqCsla61f1RGcc9B4O2FcB0DjPGqYon8++iI8VUKLtvimM/25rKaN8J1vSiCUKPg9q/Ip4WHaynA6tLp7h9gUyXtRZ9UIisGI7Hgeeb0NpygX18o6dz+av1OI/RqtCGto4d5tdFtjQ92Am+4Vw8RnFLG9ilqk7/aN8PhL0sH8c/2Fgcu8Szsy7K7ZIW157S5umVRh0KlvpAXHIKmPVZwxCkO/jiVx0ypH9zKjl4Xu38NmkELN6xHeNSwB2bLgzdScHh/Bk0y0p4whluriPm6xILnpbCy3habhy2QZCMc7qBVv85f2FtB602VigYguIELBRrzbDE1n5pnk/ShUMx3OLcvHvfxoPDsKI/yovsYpncAS7z4zCrJO62gx9mi5wuAqm/z3c9Q7NJqpwH3W1YWRW399qFfKXwPhwnS3yNMOcwMq5B9bQZaEffCkkAHN/QhRiUOgSspyTezOwOZyqPI141eBSIU3i2bfdMzY4t7OhFG1tov/Apw2oPrRZDcJPeXOFUnyCwA5qoe4EA/c7SwXcDxQ/uxL8D4XdmnEHi1PFldeQQmR3C7ysUm7tPVgLp+8Z/1xQSfB7ezlDg73fTcQTe8ah/KEi3a/Jd92aqbZ15mcKGMFWbyWV1xWziczm8KbvV4uLceCAuqmlhlx7kgmx1UgVZnRvWGh2k0lpxpCS574A=" parent="1" vertex="1">
          <mxGeometry x="160" y="361" width="50" height="50" as="geometry" />
        </mxCell>
        <mxCell id="pXnTxBTak33NkUVofG4Y-4" value="SQL Server Database" style="image;aspect=fixed;html=1;points=[];align=center;fontSize=12;image=img/lib/azure2/databases/SQL_Server.svg;" parent="1" vertex="1">
          <mxGeometry x="1040" y="352" width="68" height="68" as="geometry" />
        </mxCell>
        <mxCell id="pXnTxBTak33NkUVofG4Y-6" value="Writes to DB" style="edgeStyle=orthogonalEdgeStyle;rounded=0;orthogonalLoop=1;jettySize=auto;html=1;entryX=0;entryY=0.5;entryDx=0;entryDy=0;entryPerimeter=0;" parent="1" target="pXnTxBTak33NkUVofG4Y-4" edge="1">
          <mxGeometry relative="1" as="geometry">
            <mxPoint x="933.7800000000002" y="386" as="sourcePoint" />
          </mxGeometry>
        </mxCell>
        <mxCell id="NBnYRrZMTp_svoFaxprV-1" value="Plan Tech Container App&lt;div&gt;Controller route&lt;/div&gt;" style="image;aspect=fixed;html=1;points=[];align=center;fontSize=12;image=img/lib/azure2/containers/App_Services.svg;" parent="1" vertex="1">
          <mxGeometry x="520" y="361" width="50" height="50" as="geometry" />
        </mxCell>
        <mxCell id="VRYqhQBVEXLGR9tHtfBn-1" value="Plan Tech Container App&lt;br&gt;BackgroundService" style="image;aspect=fixed;html=1;points=[];align=center;fontSize=12;image=img/lib/azure2/containers/App_Services.svg;" vertex="1" parent="1">
          <mxGeometry x="880" y="361" width="50" height="50" as="geometry" />
        </mxCell>
      </root>
    </mxGraphModel>
  </diagram>
</mxfile>
